0
SECTION
2
HEADER
9
$ACADVER
1
AC1015
9
$HANDSEED
5
FFF
9
$EXTMIN
10
-500
20
-300
9
$EXTMAX
10
1200
20
400
9
$TILEMODE
70
1
0
ENDSEC
0
SECTION
2
TABLES
0
TABLE
2
LTYPE
70
1
0
LTYPE
2
CONTINUOUS
70
0
3
Solid line
72
65
73
0
40
0.0
0
ENDTAB
0
TABLE
2
LAYER
70
4
0
LAYER
2
0
70
0
62
7
6
CONTINUOUS
370
-1
0
LAYER
2
NOTES
70
0
62
3
6
CONTINUOUS
370
-1
0
LAYER
2
QUADROS
70
0
62
1
6
CONTINUOUS
370
-1
0
LAYER
2
OCULTA
70
0
62
-5
6
CONTINUOUS
370
-1
0
ENDTAB
0
TABLE
2
STYLE
70
1
0
STYLE
2
STANDARD
70
0
40
0.0
41
1.0
50
0.0
71
0
42
2.5
3
txt
4

0
ENDTAB
0
TABLE
2
BLOCK_RECORD
70
3
0
BLOCK_RECORD
5
1F
330
1
100
AcDbSymbolTableRecord
100
AcDbBlockTableRecord
2
*Model_Space
340
E1
70
0
280
1
281
0
0
BLOCK_RECORD
5
21
330
1
100
AcDbSymbolTableRecord
100
AcDbBlockTableRecord
2
*Paper_Space
340
E2
70
0
280
1
281
0
0
BLOCK_RECORD
5
23
330
1
100
AcDbSymbolTableRecord
100
AcDbBlockTableRecord
2
*Paper_Space0
340
E3
70
0
280
1
281
0
0
BLOCK_RECORD
5
F10
330
1
100
AcDbSymbolTableRecord
100
AcDbBlockTableRecord
2
CARIMBO
70
0
280
1
281
0
0
ENDTAB
0
ENDSEC
0
SECTION
2
BLOCKS
0
BLOCK
5
A1
330
1F
100
AcDbEntity
8
0
100
AcDbBlockBegin
2
*Model_Space
70
0
10
0.0
20
0.0
30
0.0
3
*Model_Space
1

0
ENDBLK
5
A1E
330
1F
100
AcDbEntity
8
0
100
AcDbBlockEnd
0
BLOCK
5
A2
330
21
100
AcDbEntity
8
0
100
AcDbBlockBegin
2
*Paper_Space
70
0
10
0.0
20
0.0
30
0.0
3
*Paper_Space
1

0
ENDBLK
5
A2E
330
21
100
AcDbEntity
8
0
100
AcDbBlockEnd
0
BLOCK
5
A3
330
23
100
AcDbEntity
8
0
100
AcDbBlockBegin
2
*Paper_Space0
70
0
10
0.0
20
0.0
30
0.0
3
*Paper_Space0
1

0
ENDBLK
5
A3E
330
23
100
AcDbEntity
8
0
100
AcDbBlockEnd
0
BLOCK
5
F11
330
F10
100
AcDbEntity
8
0
100
AcDbBlockBegin
2
CARIMBO
70
0
10
0.0
20
0.0
30
0.0
3
CARIMBO
1

0
TEXT
5
F12
330
F10
100
AcDbEntity
8
0
100
AcDbText
10
10
20
5
30
0
40
4
1
Projeto Escola Aitra
7
STANDARD
100
AcDbText
0
ENDBLK
5
F13
330
F10
100
AcDbEntity
8
0
100
AcDbBlockEnd
0
ENDSEC
0
SECTION
2
ENTITIES
0
INSERT
5
F14
330
1F
100
AcDbEntity
8
NOTES
100
AcDbBlockReference
2
CARIMBO
10
900
20
-200
30
0
41
2
42
2
43
1
0
TEXT
5
B1
330
1F
100
AcDbEntity
8
NOTES
100
AcDbText
10
0
20
0
30
0
40
20
1
Sala Técnica 01
7
STANDARD
100
AcDbText
0
TEXT
5
B2
330
1F
100
AcDbEntity
8
NOTES
100
AcDbText
10
0
20
60
30
0
40
20
1
Instalação AVAC
7
STANDARD
100
AcDbText
0
TEXT
5
B3
330
1F
100
AcDbEntity
8
QUADROS
100
AcDbText
10
600
20
300
30
0
40
20
1
Quadro Elétrico QE-01
7
STANDARD
100
AcDbText
0
MTEXT
5
B4
330
1F
100
AcDbEntity
8
QUADROS
100
AcDbMText
10
-500
20
250
30
0
40
20
41
300
71
1
72
5
1
{\fArial|b0;Cobertura}\PQuadro de terraço QT-02
7
STANDARD
0
TEXT
5
B5
330
1F
100
AcDbEntity
8
OCULTA
100
AcDbText
10
300
20
-300
30
0
40
20
1
Quadro oculto (camada desligada)
7
STANDARD
100
AcDbText
0
LINE
5
C00
330
21
100
AcDbEntity
67
1
8
0
100
AcDbLine
10
0
20
0
30
0
11
800
21
0
31
0
0
LINE
5
C01
330
21
100
AcDbEntity
67
1
8
0
100
AcDbLine
10
800
20
0
30
0
11
800
21
600
31
0
0
LINE
5
C02
330
21
100
AcDbEntity
67
1
8
0
100
AcDbLine
10
800
20
600
30
0
11
0
21
600
31
0
0
LINE
5
C03
330
21
100
AcDbEntity
67
1
8
0
100
AcDbLine
10
0
20
600
30
0
11
0
21
0
31
0
0
TEXT
5
C10
330
21
100
AcDbEntity
67
1
8
NOTES
100
AcDbText
10
40
20
540
30
0
40
14
1
Planta Piso 0 - Folha 1
7
STANDARD
100
AcDbText
0
TEXT
5
C11
330
21
100
AcDbEntity
67
1
8
NOTES
100
AcDbText
10
40
20
500
30
0
40
14
1
Legenda: Sala Técnica 01
7
STANDARD
100
AcDbText
0
MTEXT
5
C12
330
21
100
AcDbEntity
67
1
8
NOTES
100
AcDbMText
10
40
20
450
30
0
40
20
41
300
71
1
72
5
1
{\fArial|b0;Revisão B}\PQuadro Elétrico QE-01
7
STANDARD
0
LINE
5
D00
330
23
100
AcDbEntity
67
1
8
0
100
AcDbLine
10
0
20
0
30
0
11
400
21
0
31
0
0
LINE
5
D01
330
23
100
AcDbEntity
67
1
8
0
100
AcDbLine
10
400
20
0
30
0
11
400
21
300
31
0
0
LINE
5
D02
330
23
100
AcDbEntity
67
1
8
0
100
AcDbLine
10
400
20
300
30
0
11
0
21
300
31
0
0
LINE
5
D03
330
23
100
AcDbEntity
67
1
8
0
100
AcDbLine
10
0
20
300
30
0
11
0
21
0
31
0
0
TEXT
5
D10
330
23
100
AcDbEntity
67
1
8
NOTES
100
AcDbText
10
20
20
250
30
0
40
14
1
Alçado Norte - Folha 2
7
STANDARD
100
AcDbText
0
TEXT
5
D11
330
23
100
AcDbEntity
67
1
8
NOTES
100
AcDbText
10
20
20
200
30
0
40
14
1
Sala Técnica 01 (vista lateral)
7
STANDARD
100
AcDbText
0
TEXT
5
D12
330
23
100
AcDbEntity
67
1
8
OCULTA
100
AcDbText
10
20
20
150
30
0
40
14
1
Alçado oculto (camada desligada)
7
STANDARD
100
AcDbText
0
ENDSEC
0
SECTION
2
OBJECTS
0
DICTIONARY
5
C
330
0
100
AcDbDictionary
281
1
3
ACAD_LAYOUT
350
D
0
DICTIONARY
5
D
102
{ACAD_REACTORS
330
C
102
}
330
C
100
AcDbDictionary
281
1
3
Model
350
E1
3
Planta
350
E2
3
Alçados
350
E3
0
LAYOUT
5
E1
102
{ACAD_REACTORS
330
D
102
}
330
D
100
AcDbPlotSettings
1

2
none_device
4
ISO_A3_(420.00_x_297.00_MM)
6

40
0.0
41
0.0
42
0.0
43
0.0
44
420.0
45
297.0
46
0.0
47
0.0
48
0.0
49
0.0
140
0.0
141
0.0
142
1.0
143
1.0
70
0
72
1
73
1
74
5
7

75
16
147
1.0
148
0.0
149
0.0
100
AcDbLayout
1
Model
70
1
71
0
10
0.0
20
0.0
11
12.0
21
9.0
12
0.0
22
0.0
32
0.0
14
0.0
24
0.0
34
0.0
15
0.0
25
0.0
35
0.0
146
0.0
13
0.0
23
0.0
33
0.0
16
1.0
26
0.0
36
0.0
17
0.0
27
1.0
37
0.0
76
0
330
1F
0
LAYOUT
5
E2
102
{ACAD_REACTORS
330
D
102
}
330
D
100
AcDbPlotSettings
1

2
none_device
4
ISO_A3_(420.00_x_297.00_MM)
6

40
0.0
41
0.0
42
0.0
43
0.0
44
420.0
45
297.0
46
0.0
47
0.0
48
0.0
49
0.0
140
0.0
141
0.0
142
1.0
143
1.0
70
688
72
1
73
1
74
5
7

75
16
147
1.0
148
0.0
149
0.0
100
AcDbLayout
1
Planta
70
1
71
1
10
0.0
20
0.0
11
420.0
21
297.0
12
0.0
22
0.0
32
0.0
14
0.0
24
0.0
34
0.0
15
800.0
25
600.0
35
0.0
146
0.0
13
0.0
23
0.0
33
0.0
16
1.0
26
0.0
36
0.0
17
0.0
27
1.0
37
0.0
76
0
330
21
0
LAYOUT
5
E3
102
{ACAD_REACTORS
330
D
102
}
330
D
100
AcDbPlotSettings
1

2
none_device
4
ISO_A3_(420.00_x_297.00_MM)
6

40
0.0
41
0.0
42
0.0
43
0.0
44
420.0
45
297.0
46
0.0
47
0.0
48
0.0
49
0.0
140
0.0
141
0.0
142
1.0
143
1.0
70
688
72
1
73
1
74
5
7

75
16
147
1.0
148
0.0
149
0.0
100
AcDbLayout
1
Alçados
70
1
71
2
10
0.0
20
0.0
11
420.0
21
297.0
12
0.0
22
0.0
32
0.0
14
0.0
24
0.0
34
0.0
15
800.0
25
600.0
35
0.0
146
0.0
13
0.0
23
0.0
33
0.0
16
1.0
26
0.0
36
0.0
17
0.0
27
1.0
37
0.0
76
0
330
23
0
ENDSEC
0
EOF
